<svg viewBox="0 0 24 24" fill="#000000" xmlns="http://www.w3.org/2000/svg"><path d="m3.29929907 5.53710645v-3.32803599h-2.19431013c-.19625923 0-.34359109-.02446276-.44199557-.0733883-.13743644-.06871564-.25040919-.14732634-.33891825-.23583209-.09840449-.09840079-.18196585-.21631684-.25068406-.35374812-.04892737-.0984008-.07339106-.24572714-.07339106-.44197901 0-.19625188.02446369-.34357821.07339106-.44197901.05882279-.11764118.13743643-.22566217.23584092-.32406297.11764559-.11764118.23556605-.20587206.35376139-.26469265.09840448-.04892554.24573634-.07338831.44199557-.07338831h4.40263878v5.50742129h16.49237228v10.98433281h-18.70152554v-10.95547224zm2.20832865 8.76124435h14.28321898v-6.59670162h-14.28321898zm3.29847446 5.4925787c0 .3138931-.04920225.5986507-.14760673.8542729-.09840449.2748626-.26030461.5153673-.48570037.7215142-.20615465.216042-.45161613.3779361-.73638442.4856822-.25508202.0984008-.53490261.1476012-.83946175.1476012-.29466372 0-.56953659-.0492004-.82461861-.1476012-.25508203-.0984008-.49559579-.2602949-.72154129-.4856822-.23584092-.225937-.39774104-.4664417-.48570036-.7215142-.10775017-.2748626-.16162525-.5596202-.16162525-.8542729 0-.2748625.05387508-.5497251.16162525-.8245877.09840448-.2550724.26030461-.4955772.48570036-.7215142s.46590952-.3878311.72154129-.4856822c.27487287-.1077461.54974574-.1616192.82461861-.1616192.2847683 0 .56458888.0538731.83946175.1616192.25508202.0885058.49559579.2503998.72154129.4856822.23584092.2358321.40268875.4763368.5005435.7215142.09840448.2550725.14760673.5299351.14760673.8245877zm9.89542332 2.2082459c-.3045591 0-.5843797-.0492004-.8394617-.1476012-.2748729-.0984008-.5153866-.2602948-.7215413-.4856821-.2358409-.2259371-.4026887-.4664418-.5005435-.7215143-.0978547-.2550725-.147057-.5398301-.1476067-.8542729 0-.2946526.0492022-.5695152.1476067-.8245877.0984045-.2451774.2652523-.4856821.5005435-.7215142.2259455-.2358321.4664593-.3977261.7215413-.4856822.2748729-.1077461.5546934-.1616192.8394617-.1616192.2748729 0 .5497458.0538731.8246187.1616192.255082.0984008.4955957.2602949.7215412.4856822s.3878457.4658921.4857004.7215142c.1077502.2748626.1616253.5497252.1616253.8245877 0 .2946527-.0538751.5794103-.1616253.8542729-.0885091.2550725-.2504092.4955772-.4857004.7215143-.2259455.225937-.4664592.387831-.7215412.4856821-.2550821.0978511-.5299549.1470515-.8246187.1476012z"/></svg>