<svg viewBox="0 0 23 23" xmlns="http://www.w3.org/2000/svg"><g fill="none" fill-rule="evenodd"><path d="m11.5 22.3974c-.6480889 0-1.3736111-.0730889-2.17656667-.2192667-.69357777-.1369777-1.38255555-.3513889-2.06693333-.6432333-.64808889-.2831556-1.25963333-.6164-1.83463333-.9997333-.65728889-.4564223-1.19574445-.8944445-1.61536667-1.3140667-.43802222-.4380222-.88524444-.9856778-1.34166667-1.6429667-.38333333-.575-.71657777-1.1865444-.99973333-1.8346333-.29184444-.6843778-.50625556-1.3733556-.64323333-2.0669333-.14617778-.8029556-.21926667-1.5284778-.21926667-2.1765667s.07308889-1.3736111.21926667-2.17656667c.13697777-.69357777.35138889-1.38255555.64323333-2.06693333.28315556-.64808889.6164-1.25963333.99973333-1.83463333.41962223-.62048889.85764445-1.15894445 1.31406667-1.61536667.47482222-.47482222 1.02247778-.92204444 1.64296667-1.34166667.575-.38333333 1.18654444-.71657777 1.83463333-.99973333.68437778-.29184444 1.37335556-.50625556 2.06693333-.64323333.80295557-.14617778 1.52847777-.21926667 2.17656667-.21926667s1.3736111.07308889 2.1765667.21926667c.6935777.13697777 1.3825555.35138889 2.0669333.64323333.6480889.28315556 1.2596333.6164 1.8346333.99973333.5842.39253334 1.1226556.83515556 1.6153667 1.32786667.5019111.50191111.9491333 1.04496667 1.3416667 1.62916667.3833333.575.7165777 1.18654444.9997333 1.83463333.2918444.68437778.5062556 1.37335556.6432333 2.06693333.1461778.80295557.2192667 1.52847777.2192667 2.17656667s-.0730889 1.3736111-.2192667 2.1765667c-.1369777.6935777-.3513889 1.3825555-.6432333 2.0669333-.2831556.6480889-.6164 1.2596333-.9997333 1.8346333-.4196223.6204889-.8576445 1.1589445-1.3140667 1.6153667-.4748222.4656222-1.0224778.9128444-1.6429667 1.3416667-.575.3833333-1.1865444.7165777-1.8346333.9997333-.6843778.2918444-1.3733556.5062556-2.0669333.6432333-.8029556.1461778-1.5284778.2192667-2.1765667.2192667zm0-20.4263c-.6480889 0-1.2869778.05928889-1.91666667.17786667-.5934.11857777-1.19114444.30564444-1.79323333.5612-.6026.28315555-1.13645556.57525555-1.60156667.8763-.49271111.30104444-.96727777.69357777-1.4237 1.1776-.49271111.46562222-.88524444.93558889-1.1776 1.4099-.28315555.43802222-.57525555.97647777-.8763 1.61536666-.23715555.52951111-.41962222 1.13645556-.5474 1.82083334-.12777777.66648893-.19166666 1.29617773-.19166666 1.88906663s.06388889 1.2317778.19166666 1.9166667c.12777778.6572889.31024445 1.2550333.5474 1.7932333.28315556.6026.57525556 1.1364556.8763 1.6015667.31024445.5111111.69357778.9902778 1.15 1.4375.40173334.3925333.8809.7758667 1.4375 1.15.49271111.3286444 1.03116667.6253444 1.61536667.8901.52951111.2371556 1.13645556.4196222 1.82083333.5474.66648887.1277778 1.29617777.1916667 1.88906667.1916667s1.2317778-.0638889 1.9166667-.1916667c.6572889-.1277778 1.2550333-.3102444 1.7932333-.5474.5566-.2463556 1.0904556-.5430556 1.6015667-.8901.5658-.3741333 1.0449666-.7574667 1.4375-1.15.3925333-.3925333.7758666-.8717 1.15-1.4375.3470444-.5111111.6437444-1.0449667.8901-1.6015667.2371555-.5387111.4196222-1.1364555.5474-1.7932333.1277777-.6204889.1916666-1.2593778.1916666-1.9166667 0-.6480889-.0638889-1.2777777-.1916666-1.88906663-.1277778-.68437778-.3102445-1.29132223-.5474-1.82083334-.2647556-.5842-.5614556-1.12265555-.8901-1.61536666-.3557334-.52951111-.7390667-.99947778-1.15-1.4099-.4748223-.47482223-.9539889-.86735556-1.4375-1.1776-.4656223-.30104445-.9994778-.59314445-1.6015667-.8763-.5387111-.23715556-1.1364556-.41962223-1.7932333-.5474-.6204889-.12777778-1.2593778-.19166667-1.9166667-.19166667z" fill="#041e42" fill-rule="nonzero"/><path d="m10 16h6.441266c1.039156 0 1.558734-.5350168 1.558734-1.6050504s-.519578-1.6050504-1.558734-1.6050504h-4.037715c-.6075198.0578772-.9112797-.22597-.9112797-.8515417s.3037599-.9383575.9112797-.9383575h.7308733" stroke="#041e42"/><g fill="#041e42" fill-rule="nonzero"><path d="m2.9997186 8-.19585405-.22623989c-.01013038-.01013014-.03526873-.04192754-.07541506-.09539219l-.09032924-.10045726c-.04352312-.06021808-.08704624-.11546489-.13056936-.16574042-.09379983-.11049361-.19425945-.23111736-.30137886-.36187126 0-.00337671-.01594597-.02429359-.04783792-.06275062-.03189194-.03845702-.06453428-.07785203-.09792702-.11818501-.02344996-.02682612-.05778069-.06790949-.10299221-.12325009s-.07616547-.09473561-.09286184-.11818502c-.04689991-.06359479-.16752649-.21263923-.36187974-.44713331-.19097646-.25119005-.30991465-.40698792-.35681456-.46739359l-.07034988-.09032712c-.04689991-.06021808-.08545164-.11218197-.11565519-.15589167-.08366945-.11387032-.12719257-.17249384-.13056936-.17587056-.12738017-.15739242-.20776663-.26797983-.24115937-.33176222-.09042304-.14069645-.17756308-.30146559-.26142013-.48230742-.08704624-.17089929-.14904793-.32332044-.18600506-.45726345-.04689992-.16414586-.08207486-.32829172-.10552481-.49243757-.02344996-.14069645-.03517494-.31656701-.03517494-.52761168 0-.20766795.02007316-.40698792.06021949-.5979599.04014633-.18421855.09877122-.37181381.17587469-.56278579.06697307-.16752257.15908451-.34170477.2763343-.52254661.10055342-.15082659.2228684-.29658811.36694494-.43728455.13732295-.13731974.28468248-.25794349.4420786-.36187127.19435325-.12062375.36356815-.21442138.50764469-.28139289.19097645-.07710165.37857612-.13572517.56279898-.17587056.20091924-.04014539.40362068-.06021808.60810431-.06021808.23787637 0 .44057781.01678978.60810431.05036933.18422286.03676867.37182253.0987689.56279898.1860007.16414971.07034823.3333646.16076914.50764469.27126275.15083013.10392778.29818966.22783445.4420786.37172002.14069975.13731973.26301473.28308125.36694494.43728455.10393022.15739243.19435325.33157463.27126911.52254661.07691587.19097198.13554076.37856724.17587469.56278579.04352312.22774065.06528468.42706062.06528468.5979599 0 .20091453-.01172498.37678509-.03517494.52761168-.02682675.17089928-.06200169.33166842-.10552481.48230742-.03676953.13731973-.09877122.2931176-.18600506.4673936-.08048026.16076914-.1676203.32153828-.26142013.48230742-.0570303.09042092-.13741675.20100833-.24115937.33176222-.00337679.00337672-.04689991.06200024-.13056936.17587056-.02344996.03020284-.04689992.06115606-.07034988.09285966-.02344995.0317036-.04605571.06181264-.06781727.09032712s-.03770754.04943135-.04783792.06275061c-.04689991.05027553-.1089016.12728339-.18600506.23102357-.05027671.06697151-.10890161.14238481-.17587469.22623989-.01013038.01331926-.12906856.16574041-.35681455.45726345-.06697308.08047837-.12053279.14576152-.16067911.19584946-.03676954.04689881-.09877123.11893539-.18600507.21610974-.19097646.24124751-.28984148.36515418-.29659507.37172001-.09379983.11049361-.1641497.19594326-.21104962.25634893-.03020354.04014539-.06031329.0753195-.09032923.10552234zm0-7.4971509c-.18759966 0-.35512616.01341306-.50257949.04023919-.14745334.02682612-.30494326.07710165-.47246975.15082659-.15083013.06697151-.28984148.14397936-.41703405.23102357-.14745334.10055106-.27305131.20269668-.37679393.30643686-.09717662.10055106-.19604164.22286317-.29659506.36693633-.09379983.13394302-.17418629.27801618-.24115937.43221949-.06359628.13394302-.1104962.2930238-.14069974.47724235-.03358034.16752257-.05037051.33166842-.05037051.49243756 0 .18421855.00834818.3366397.02504455.45726346.02007317.13394302.05018291.27463946.09032924.42208934.04014633.1305663.09211143.26122641.15589532.3919803.07372667.16414586.15242472.30315395.23609417.41702427.02344996.04689882.08207486.1306601.17587469.25128386.04352312.06359479.12390957.16911713.24115936.31656701.01013038.01013014.02101116.0235432.03264234.04023918s.02673296.03845703.04530532.06528315c.01857237.02682612.03620674.05027553.05290311.07034822l.0529031.06528316.05290311.06528315c.01331957.01669598.02504455.03179739.03517493.04530425.00675359.00675343.05365351.06875367.14069975.18600071s.13394616.17924727.14069975.1860007c.06021949.07710165.1104962.13910189.15083013.1860007.02007316.02682613.04605571.0594677.07794765.09792473.03189195.03845703.05280931.06443897.06275209.07794583.00675359.01331927.04699372.06190644.12072038.14576152.0570303.07372494.11059001.13900809.16067912.19584946l.08554544.10552233.09032924.10552234c.04689991.05365224.07203827.08216672.07541506.08554344.00675359.01013014.01510178.02101067.02504456.03264157.00994278.01163091.02251196.02673233.03770753.04530426s.02776475.03451753.03770753.04783679c.00994278.01331927.04174093.05355845.09539443.12071756.0536535-.06697151.08545165-.1072107.09539443-.12071756.01331957-.01669598.03095394-.0393012.0529031-.06781568s.03620674-.047743.04277273-.05768555l.25635494-.29658811c.0502767-.05702896.10383641-.12231211.16067911-.19584945.07372666-.08366749.11396679-.13225466.12072038-.14576152.01013038-.01331927.02269956-.02842069.03770753-.04530426s.03339274-.0394888.0551543-.06781569c.02176156-.02832688.04099053-.05262047.0576869-.07288076.07034987-.09379763.11387299-.15242115.13056936-.17587056.0033768-.00675343.01510178-.02269902.03517494-.04783679.02007316-.02513776.0560923-.07034822.1080574-.13563137.05196511-.06528316.10139762-.12812757.14829754-.18853324l.03517493-.04530426c.01331958-.01688357.03095395-.03864462.05290311-.06528315s.03958353-.04839958.0529031-.06528315c.01669637-.0200727.03433074-.0435221.05290311-.07034823.01857237-.02682612.03367414-.04858717.04530532-.06528315s.02251196-.03010904.03264234-.04023918c.0570303-.07034823.13572835-.17587056.23609417-.31656701.08704625-.11724704.14567114-.20100832.17587469-.25128385.09042303-.12737719.17080949-.26638528.24115936-.41702427.05365351-.10055106.10224182-.23121117.14576494-.39198031.05027671-.174276.08376325-.31497244.10045962-.42208934.01669637-.12062375.02504455-.2730449.02504455-.45726345 0-.14407316-.01838476-.30821902-.0551543-.49243757-.03358034-.18759526-.07879185-.34667604-.13563455-.47724235-.07034988-.16752257-.14735954-.31159573-.23102899-.43221948-.09042303-.12400047-.19257105-.24293587-.30644404-.3568062-.10711941-.11049361-.23102899-.21432758-.37172874-.31150193-.1104962-.08047837-.25119594-.15917458-.42209924-.23608864-.16752649-.07372494-.32501641-.12400047-.47246975-.15082659-.14745333-.02682612-.31497983-.04023918-.50257949-.04023918zm.74880405 2.49736194c0 .09042092-.01838476.18590691-.0551543.28645797-.03358034.0870442-.08882844.16911713-.1657443.24621878-.08366945.08366749-.1657443.14060265-.24622456.17080549-.08704624.03357955-.18084607.05036933-.28139949.05036933s-.19435325-.01678978-.28139949-.05036933c-.08048026-.03020284-.16255511-.087138-.24622456-.17080549-.07710346-.07710165-.13235156-.15917458-.1657443-.24621878-.03676954-.10055106-.0551543-.19603705-.0551543-.28645797 0-.0870442.01838476-.18084183.0551543-.28139289.03358034-.0870442.08882844-.16911713.1657443-.24621878.08366945-.08047837.1657443-.13741353.24622456-.17080549.08704624-.03357955.18084607-.05036933.28139949-.05036933s.19435325.01678978.28139949.05036933c.08048026.03357955.16255511.09051471.24622456.17080549.07710346.07710165.13235156.15917458.1657443.24621878.03676954.10055106.0551543.19434869.0551543.28139289z" transform="translate(5 9)"/><path d="m2.4997655 6-.16321171-.16967992c-.00844198-.0075976-.02939061-.03144565-.06284588-.07154414l-.07527437-.07534295c-.03626927-.04516356-.07253853-.08659866-.1088078-.12430531-.07816653-.08287021-.16188288-.17333802-.25114905-.27140345 0-.00253253-.01328831-.01822018-.03986493-.04706296-.02657662-.02884277-.05377857-.05838902-.08160585-.08863876-.01954163-.02011959-.04815058-.05093211-.08582685-.09243756-.03767626-.04150546-.06347122-.07105171-.07738486-.08863877-.03908326-.04769609-.13960541-.15947942-.30156645-.33534998-.15914705-.18839254-.25826221-.30524094-.29734547-.3505452l-.05862489-.06774534c-.03908327-.04516356-.07120971-.08413647-.09637933-.11691874-.06972454-.08540275-.10599381-.12937039-.1088078-.13190292-.10615015-.11804432-.17313886-.20098488-.20096614-.24882167-.07535253-.10552234-.14796924-.22609919-.21785011-.36173057-.07253854-.12817446-.12420661-.24249032-.15500422-.34294759-.03908326-.12310939-.06839571-.24621878-.08793734-.36932817-.01954163-.10552234-.02931245-.23742526-.02931245-.39570876 0-.15575097.01672764-.30524094.05018291-.44846993.03345527-.13816391.08230935-.27886036.14656224-.42208934.0558109-.12564193.13257042-.25627858.23027858-.39190995.08379452-.11311995.18572367-.22244109.30578745-.32796342.1144358-.1029898.23723541-.19345762.36839884-.27140345.16196104-.09046781.30297345-.16081604.42303724-.21104467.15914704-.05782624.3154801-.10179388.46899915-.13190292.1674327-.03010904.33635056-.04516356.50675359-.04516356.19823031 0 .36714817.01259233.50675359.037777.15351905.0275765.30985211.07407668.46899915.13950052.13679142.05276117.27780384.12057686.42303724.20344707.12569178.07794583.24849139.17087583.36839884.27879001.11724979.1029898.21917894.21231094.30578745.32796342.08660851.11804432.16196104.24868097.22605759.39190995s.11295063.28392543.14656224.42208934c.03626927.17080549.0544039.32029547.0544039.44846993 0 .15068589-.00977082.28258881-.02931245.39570876-.02235562.12817446-.05166807.24875132-.08793734.36173056-.03064128.1029898-.08230935.2198382-.15500422.3505452-.06706688.12057686-.13968358.24115371-.21785011.36173057-.04752525.06781569-.11451396.15075624-.20096614.24882167-.00281399.00253253-.03908326.04650017-.1088078.13190292-.01954163.02265212-.03908326.04586704-.05862489.06964474-.01954164.0237777-.03837977.04635948-.0565144.06774534-.01813464.02138586-.03142295.03707351-.03986493.04706296-.03908326.03770665-.09075134.09546254-.15500422.17326767-.04189726.05022863-.09075134.10678861-.14656224.16967992-.00844198.00998945-.10755714.12430531-.29734546.34294759-.0558109.06035877-.10044399.10932114-.13389926.14688709-.03064128.03517411-.08230935.08920155-.15500422.16208231-.15914705.18093563-.24153457.27386563-.24716256.27879001-.07816652.08287021-.13679142.14695744-.17587468.19226169-.02516962.03010904-.05026108.05648963-.07527437.07914176zm0-5.62286317c-.15633305 0-.29593847.01005979-.41881625.03017939-.12287777.02011959-.25411937.05782624-.39372479.11311994-.12569177.05022863-.24153456.10798452-.34752837.17326767-.12287778.0754133-.22754276.15202252-.31399494.22982765-.08098052.0754133-.16336804.16714738-.24716255.27520225-.07816653.10045727-.14515524.20851214-.20096614.32416462-.0529969.10045726-.09208017.21976785-.11724979.35793176-.02798361.12564193-.04197542.24875132-.04197542.36932817 0 .13816391.00695682.25247978.02087046.34294759.01672764.10045727.04181909.2059796.07527436.31656701.03345528.09792473.07675953.1959198.12991277.29398523.06143889.12310939.12702061.22736546.19674515.3127682.01954163.03517411.06839571.09799508.14656223.18846289.03626927.0476961.10325798.12683785.20096614.23742526.00844199.0075976.0175093.0176574.02720195.03017938.00969265.01252199.02227746.02884278.03775443.04896237.01547698.02011959.03017228.03770665.04408592.05276117l.04408592.04896236.04408593.04896236c.01109964.01252199.02087046.02384805.02931244.0339782.00562799.00506507.04471126.05156524.11724979.13950052.07253854.08793528.1116218.13443546.11724979.13950053.05018291.05782624.09208017.10432642.12569177.13950053.01672764.02011959.03837977.04460077.06495639.07344354.02657662.02884278.04400775.04832923.0522934.05845938.00562799.00998945.03916143.04642983.10060032.10932114.04752525.0552937.09215834.10425606.13389926.14688709l.07128787.07914175.07527437.07914175c.03908326.04023919.06003189.06162505.06284588.06415758.00562799.00759761.01258481.015758.02087047.02448118.00828565.00872318.01875996.02004925.03142294.0339782.01266298.01392894.02313729.02588814.03142294.03587759.00828566.00998945.03478411.04016884.07949536.09053816.04471125-.05022863.07120971-.08040802.07949536-.09053816.01109964-.01252198.02579495-.02947591.04408592-.05086177s.03017228-.03580724.03564393-.04326415l.21362912-.22244109c.04189726-.04277172.08653034-.09173408.13389926-.14688709.06143889-.06275061.09497233-.09919099.10060032-.10932114.00844198-.00998945.0189163-.02131551.03142294-.03397819s.02782728-.0296166.04596192-.05086177c.01813463-.02124516.03415877-.03946535.04807241-.05466057.0586249-.07034822.09489416-.11431586.10880781-.13190291.00281399-.00506508.01258481-.01702427.02931244-.0358776.01672764-.01885332.04674359-.05276117.09004784-.10172353.04330426-.04896236.08449802-.09609567.12358128-.14139993l.02931245-.03397819c.01109964-.01266268.02579495-.02898347.04408592-.04896237.01829096-.01997889.03298627-.03629968.04408592-.04896236.01391364-.01505452.02860895-.03264158.04408592-.05276117s.02806178-.03644038.03775443-.04896236.01875997-.02258178.02720195-.03017939c.04752525-.05276117.11310696-.13190292.19674515-.23742525.07253853-.08793528.12139261-.15075625.14656223-.1884629.07535253-.09553288.14234125-.19978895.20096614-.3127682.04471125-.07541329.08520151-.17340837.12147078-.29398522.04189726-.130707.06980271-.23622934.08371635-.31656701.01391364-.09046782.02087046-.20478368.02087046-.34294759 0-.10805487-.01532064-.23116426-.04596191-.36932818-.02798362-.14069644-.06565989-.26000703-.1130288-.35793176-.05862489-.12564193-.12279961-.2336968-.19252415-.32416461-.07535253-.09300036-.16047588-.1822019-.25537004-.26760465-.08926618-.0828702-.19252416-.16074569-.30977395-.23362645-.09208016-.06035877-.20932995-.11938093-.35174936-.17706648-.13960542-.0552937-.27084702-.09300035-.39372479-.11311994-.12287778-.02011959-.2624832-.03017939-.41881625-.03017939zm.62400338 1.87302145c0 .06781569-.01532064.13943018-.04596192.21484348-.02798362.06528315-.0740237.12683785-.13812025.18466409-.06972454.06275061-.13812025.10545198-.20518713.12810411-.07253854.02518467-.15070506.037777-.23449958.037777s-.16196104-.01259233-.23449958-.037777c-.06706688-.02265213-.13546259-.0653535-.20518713-.12810411-.06425288-.05782624-.11029297-.11938094-.13812025-.18466409-.03064128-.0754133-.04596192-.14702779-.04596192-.21484348 0-.06528315.01532064-.13563137.04596192-.21104467.02798362-.06528315.0740237-.12683784.13812025-.18466408.06972454-.06035878.13812025-.10306015.20518713-.12810412.07253854-.02518466.15070506-.037777.23449958-.037777s.16196104.01259234.23449958.037777c.06706688.02518466.13546259.06788604.20518713.12810412.06425288.05782624.11029297.11938093.13812025.18466408.03064128.0754133.04596192.14576152.04596192.21104467z" transform="translate(13 5)"/></g></g></svg>