<svg viewBox="0 0 19 19" xmlns="http://www.w3.org/2000/svg" fill="#000000"><path d="m1.35141007 10.8651138c-.19109306 0-.36409597-.0318475-.51900873-.0955426-.18192059-.0728673-.3274061-.1684099-.43645654-.2866281-.1457403-.1273902-.25045929-.2774559-.31415697-.4501971-.05452522-.09987395-.08178783-.27720117-.08178783-.53198166 0-.24560839.02726261-.41860434.08178783-.51898785.07287015-.15490654.17300291-.30038619.30039828-.43643897.1457403-.14573444.29581204-.25044922.45021523-.31414434.15440318-.06369512.32740609-.09554269.51900873-.09554269h16.29717983c.1910931 0 .364096.03184757.5190088.09554269.1819206.07286722.3274061.1684099.4364565.28662804.1365678.12739025.2412868.282042.314157.46395527.0545252.09987395.0817878.2728699.0817878.51898785s-.0272626.4191139-.0817878.51898786c-.0728702.1549065-.1730029.3003862-.3003983.436439-.1457403.1457344-.295812.2504492-.4502152.3141443s-.3274061.0955427-.5190088.0955427h-16.29717983zm0 8.1348862c-.22727334 0-.40027625-.0318476-.51900873-.0955427-.17274812-.0728672-.31823363-.1684099-.43645654-.286628-.1457403-.1457345-.25045929-.2958002-.31415697-.4501971-.05452522-.099874-.08178783-.27287-.08178783-.5189879 0-.2364363.02726261-.4048462.08178783-.5052297.06369768-.1549065.16383044-.3003862.30039828-.436439.1182229-.1182181.26829464-.2183469.45021523-.3003862.15491276-.0636951.32791567-.0955427.51900873-.0955427h16.29717983c.1910931 0 .364096.0318476.5190088.0955427.1819206.0820393.3274061.177582.4364565.2866281.1273954.1273902.2275281.2774559.3003983.4501971.0636977.1182181.0955465.286628.0955465.5052297 0 .2272642-.0318488.4002601-.0955465.5189879-.0728702.1727411-.1684167.3182208-.2866396.4364389-.1457403.1457345-.295812.2504492-.4502152.3141444-.099878.054523-.2728809.0817845-.5190088.0817845zm0-16.28353045c-.17274812 0-.34575103-.04101966-.51900873-.12305898-.17274812-.07286722-.31823363-.1684099-.43645654-.28662805-.13656783-.13656234-.24128682-.27771073-.31415697-.42344516-.05452522-.09987395-.08178783-.27720117-.08178783-.53198166 0-.24560839.02726261-.41860434.08178783-.51898785.06369768-.15490654.16383044-.30038619.30039828-.43643897.12739536-.12739025.27746711-.22751898.45021523-.3003862.1182229-.06369512.29122581-.09554268.51900873-.09554268h16.29717983c.2272734 0 .4002763.03184756.5190088.09554268.1819206.07286722.3274061.17299595.4364565.3003862.1273954.10904604.2275281.2545257.3003983.43643897.0636977.11821815.0955465.2912141.0955465.51898785 0 .23643629-.0318488.41376351-.0955465.53198166-.0636977.15490653-.1592442.29605492-.2866396.42344516-.1635757.11821815-.3136474.21376083-.4502152.28662805-.1727482.08203932-.3457511.12305898-.5190088.12305898z"/></svg>