<svg viewBox="0 0 23 20" fill="#000000" xmlns="http://www.w3.org/2000/svg"><path d="m6.81922111 1.59294331c-.13333833 0-.25144621.01037748-.35432363.03113245h-.16897185c-.08218698 0-.13362569.00518874-.15431612.01556622-.07184178 0-.17960444.0204667-.32328798.06140009-.02069043 0-.06954284.01037748-.14655722.03113244-.07701438.02075497-.14626985.03632119-.20776641.04669867-.47185677.12337672-.91842523.32919675-1.33970539.61746011-.42128015.28826336-.85233079.66905925-1.29315191 1.14238769-.44139586.44277251-.76468384 1.00892175-.96986394 1.6984477-.21552532.72065839-.32328798 1.50300514-.32328798 2.34704025 0 .44277252.03592089.85960134.10776266 1.25048645.0925322.39146164.20546747.75179083.3388058 1.08098759.1126479.27788583.28707973.61255963.52329548 1.00402123.15402876.2369525.36955408.5407821.64657596.9114888.22587053.2778859.47731674.5557717.75433862.8336576.30805752.3090183.5850794.5612488.83106563.7566913.16437397.1129993.45174107.3496635.86210128.7099927.22587053.185065.49283456.3908851.80089208.6174601l.41553282.3242963c.17471919.1337542.43651061.3369798.78537426.609677.34886365.2726971.61582768.4759228.80089209.609677.68738209.4837059 1.17992928.8183796 1.47764159 1.0040212.15402875.1233768.35920885.2571309.61554035.4012626.2666766.1648867.4307632.2729854.4922598.3242963.3080575.2161975.4773167.3242963.5077776.3242963h.0310357c.0408061 0 .1281657-.0464104.2620788-.1392312.2051801-.1233767.3692667-.2314755.4922598-.3242963.0310357-.020755.1232805-.0798489.2767345-.177282.153454-.097433.2767345-.1720932.3698415-.2239806.2666766-.1850651.5077776-.3496634.7233029-.4937951.0718418-.0616884.2051801-.1493204.400015-.2628962.164374-.1129992.2977123-.2107205.400015-.2931638.3488637-.2161976.6310582-.4067396.8465835-.5716263.0718418-.0513109.3284606-.2418529.7698564-.5716262.3592089-.2571309.5850794-.4168288.6776116-.4790937.082187-.0616884.1695466-.1285655.2620788-.2006313s.1951223-.1519148.3077702-.2395469c.1126479-.087632.2000075-.1571035.2620788-.2084144l.8465834-.7099926c.3080575-.226575.5750216-.468428.8008921-.7255589l.723303-.8180914c.2873671-.3603292.4977198-.6641588.6310581-.9114887.1747192-.3707067.3235754-.7154697.4465685-1.03428896.1333383-.36032919.241101-.72584713.323288-1.09655381.0718417-.34995172.1077626-.79272423.1077626-1.32831755-.0103452-.679725-.0977048-1.36435047-.2620788-2.05387642-.1333383-.59728168-.3744393-1.17380839-.7233029-1.72958015-.3080576-.49408339-.7031873-.91610095-1.1853893-1.26605266-.5132376-.3603292-1.0365331-.61255964-1.5698864-.75669132-.6155403-.13375419-1.1184328-.20063129-1.5086773-.20063129-.400015.01037748-.8925622.10291002-1.4776416.27759761-.4413958.1337542-.9187126.3603292-1.4319502.679725-.4620863.3193958-.8675612.67972499-1.2164249 1.08098759l-.5853668.66415877-.5698489-.66415877c-.2362157-.27788588-.5132376-.5404938-.8310656-.78782376-.34886368-.28826336-.67215166-.49927213-.96986397-.63302633-.31840274-.16488664-.69801467-.29864084-1.13883579-.40126259-.32817322-.08244332-.71813036-.13404247-1.16987143-.15479743zm4.60362079 18.40705669-.5388133-.24733-.6155403-.3856963-.56984892-.370995-.64657596-.4012626c-.40001499-.2571309-.92331047-.6174601-1.56988643-1.0809876-.84141084-.638215-1.38022414-1.0449546-1.61643989-1.2202187l-.36984145-.2931639c-.02069043-.0103775-.0462661-.0285381-.07672702-.0544818l-.1387983-.1158818-.16897185-.1392312-.24656097-.1928482-.23104314-.177282c-.32817322-.2369525-.64111598-.4891829-.93882829-.7566913-.3798993-.3291967-.67761161-.6174601-.89313693-.8647901-.21552532-.2161975-.50289241-.5404938-.86210127-.9728888-.22587054-.2675084-.47731675-.6278376-.75433862-1.0809876-.19483489-.2882633-.41036021-.6950029-.64657596-1.2202188-.16437398-.3914616-.29771231-.83942288-.40001499-1.34388375-.09253221-.46352748-.13879831-.96798836-.13879831-1.51338263.01034522-.51483835.05661132-1.02967671.13879831-1.54451507.08218698-.43239503.19512225-.89044551.3388058-1.37415142.1126479-.29864084.28707972-.68981422.52329547-1.17352013.16437398-.30901832.38507191-.6333146.66209379-.97288883.18448967-.226575.43593588-.48399418.75433861-.77225754.31840274-.25713091.60576984-.47332843.86210128-.64859255.31840274-.17526412.6261729-.32977328.92331047-.46352748.25633145-.1337542.55404376-.25223044.89313693-.35542872l.40001499-.04669866c.15402876-.06168836.29771231-.09253254.43105064-.09253254.0925322-.02075496.23621575-.03632118.43105064-.04669866.12299311-.02075497.26667666-.03113245.43105064-.03113245.45174107 0 .89830953.0464104 1.33970538.13923121.44139586.0928208.86727389.21648578 1.2776341.37099494.22587053.0928208.61065505.30382958 1.15435365.63302633.3902445.27788588.7135324.53530505.9698639.77225753.4413958-.40126259.933943-.76159179 1.4776416-1.08098759.5540437-.30901832 1.1032023-.52521583 1.6474755-.64859255.5850794-.15450916 1.1701588-.23176374 1.7552382-.23176374s1.1598136.07725458 1.7242026.23176374c.2873671.0928208.6465759.23176374 1.0776266.41682881.3592089.15450916.6824968.3398625.9698639.55606002.3080575.21619752.5850794.46323922.8310657.74112509.3080575.37070668.533928.65897004.6776116.86479007.2770218.45315.4617989.78263502.5543311.98845506.1844897.39146164.3230006.77225753.4155328 1.14238768.1229931.44277252.2000075.85470086.2310431 1.23578502.0718418.40126259.1077627.84403511.1077627 1.32831755 0 .58690419-.0410935 1.11183177-.1232805 1.57478272-.082187.53559332-.2103527 1.00402124-.3844972 1.40528384-.1126479.3291968-.3025975.7307476-.5698489 1.2046526-.2362157.4220176-.4773167.7927242-.723303 1.11212-.3488636.4220176-.6258855.7359364-.8310656.9417564-.3488637.3603292-.646576.6434038-.8931369.8492239-.164374.1545091-.4672589.4067396-.9086548.7566913l-.2155253.1625805-.3155291.24733-.3310469.255113c-.2770218.2058201-.4770293.3499518-.6000224.4323951-.1844897.1545091-.4462811.3450512-.7853743.5716262-.082187.0720659-.2258705.1697871-.4310506.2931639-.2258706.1752641-.3695541.2781741-.4310507.30873-.0408061.0409334-.1640866.1285655-.3698414.2628962-.2770219.1954425-.4462811.3139188-.5077777.3554287-.1126479.0824433-.2359284.167481-.3698414.2551131-.1339131.087632-.2390895.1545091-.3155291.2006313-.0764396.0461221-.1304647.0847494-.162075.1158819-.1436836.0720658-.4003024.2213862-.7698565.4479612-.0925322.0616884-.1873633.1233767-.2844934.1850651-.0971301.0616883-.1689719.1080987-.2155253.1392312-.0465535.0311324-.0798881.0515991-.1000038.0614001-.1126479.0824433-.2359284.1340424-.3698414.1547974z" /></svg>