<svg viewBox="0 0 30 30" fill="#000000" xmlns="http://www.w3.org/2000/svg"><path d="m15 29.214c-.8453333 0-1.7916667-.0953333-2.839-.286-.9046667-.1786667-1.8033333-.4583333-2.696-.839-.84533333-.3693333-1.643-.804-2.393-1.304-.85733333-.5953333-1.55966667-1.1666667-2.107-1.714-.57133333-.5713333-1.15466667-1.2856667-1.75-2.143-.5-.75-.93466667-1.5476667-1.304-2.393-.38066667-.8926667-.66033333-1.7913333-.839-2.696-.19066667-1.0473333-.286-1.9936667-.286-2.839s.09533333-1.7916667.286-2.839c.17866667-.9046667.45833333-1.8033333.839-2.696.36933333-.84533333.804-1.643 1.304-2.393.54733333-.80933333 1.11866667-1.51166667 1.714-2.107.61933333-.61933333 1.33366667-1.20266667 2.143-1.75.75-.5 1.54766667-.93466667 2.393-1.304.8926667-.38066667 1.7913333-.66033333 2.696-.839 1.0473333-.19066667 1.9936667-.286 2.839-.286s1.7916667.09533333 2.839.286c.9046667.17866667 1.8033333.45833333 2.696.839.8453333.36933333 1.643.804 2.393 1.304.762.512 1.4643333 1.08933333 2.107 1.732.6546667.65466667 1.238 1.363 1.75 2.125.5.75.9346667 1.54766667 1.304 2.393.3806667.8926667.6603333 1.7913333.839 2.696.1906667 1.0473333.286 1.9936667.286 2.839s-.0953333 1.7916667-.286 2.839c-.1786667.9046667-.4583333 1.8033333-.839 2.696-.3693333.8453333-.804 1.643-1.304 2.393-.5473333.8093333-1.1186667 1.5116667-1.714 2.107-.6193333.6073333-1.3336667 1.1906667-2.143 1.75-.75.5-1.5476667.9346667-2.393 1.304-.8926667.3806667-1.7913333.6603333-2.696.839-1.0473333.1906667-1.9936667.286-2.839.286zm0-26.643c-.8453333 0-1.6786667.07733333-2.5.232-.774.15466667-1.5536667.39866667-2.339.732-.786.36933333-1.48233333.75033333-2.089 1.143-.64266667.39266667-1.26166667.90466667-1.857 1.536-.64266667.60733333-1.15466667 1.22033333-1.536 1.839-.36933333.57133333-.75033333 1.27366667-1.143 2.107-.30933333.6906667-.54733333 1.4823333-.714 2.375-.16666667.8693333-.25 1.6906667-.25 2.464s.08333333 1.6066667.25 2.5c.16666667.8573333.40466667 1.637.714 2.339.36933333.786.75033333 1.4823333 1.143 2.089.40466667.6666667.90466667 1.2916667 1.5 1.875.524.512 1.149 1.012 1.875 1.5.64266667.4286667 1.345.8156667 2.107 1.161.6906667.3093333 1.4823333.5473333 2.375.714.8693333.1666667 1.6906667.25 2.464.25s1.6066667-.0833333 2.5-.25c.8573333-.1666667 1.637-.4046667 2.339-.714.726-.3213333 1.4223333-.7083333 2.089-1.161.738-.488 1.363-.988 1.875-1.5s1.012-1.137 1.5-1.875c.4526667-.6666667.8396667-1.363 1.161-2.089.3093333-.7026667.5473333-1.4823333.714-2.339.1666667-.8093333.25-1.6426667.25-2.5 0-.8453333-.0833333-1.6666667-.25-2.464-.1666667-.8926667-.4046667-1.6843333-.714-2.375-.3453333-.762-.7323333-1.46433333-1.161-2.107-.464-.69066667-.964-1.30366667-1.5-1.839-.6193333-.61933333-1.2443333-1.13133333-1.875-1.536-.6073333-.39266667-1.3036667-.77366667-2.089-1.143-.7026667-.30933333-1.4823333-.54733333-2.339-.714-.8093333-.16666667-1.6426667-.25-2.5-.25z"/><path d="m6.98000563 0-4.1537595 2.98720734h-2.82624613v11.01279266h5.99436778v-3.9925175h2.01126444v3.9925175h5.99436778v-11.01279266h-2.4945086zm-5.98000563 3.8311391h2.16068665l3.85929365-2.8311391 4.1609681 2.8311391h1.8190516v9.1688609h-3.98986914v-4.06811677h-4.02026172v4.06811677h-3.98986914z" transform="translate(8 7)"/></svg>