<svg viewBox="0 0 24 24" xmlns="http://www.w3.org/2000/svg"><g fill="none" fill-rule="evenodd"><path d="m12 23.3712c-.6762667 0-1.4333333-.0762667-2.2712-.2288-.72373333-.1429333-1.44266667-.3666667-2.1568-.6712-.67626667-.2954667-1.3144-.6432-1.9144-1.0432-.68586667-.4762667-1.24773333-.9333333-1.6856-1.3712-.45706667-.4570667-.92373333-1.0285333-1.4-1.7144-.4-.6-.74773333-1.2381333-1.0432-1.9144-.30453333-.7141333-.52826667-1.4330667-.6712-2.1568-.15253333-.8378667-.2288-1.5949333-.2288-2.2712s.07626667-1.4333333.2288-2.2712c.14293333-.72373333.36666667-1.44266667.6712-2.1568.29546667-.67626667.6432-1.3144 1.0432-1.9144.43786667-.64746667.89493333-1.20933333 1.3712-1.6856.49546667-.49546667 1.06693333-.96213333 1.7144-1.4.6-.4 1.23813333-.74773333 1.9144-1.0432.71413333-.30453333 1.43306667-.52826667 2.1568-.6712.8378667-.15253333 1.5949333-.2288 2.2712-.2288s1.4333333.07626667 2.2712.2288c.7237333.14293333 1.4426667.36666667 2.1568.6712.6762667.29546667 1.3144.6432 1.9144 1.0432.6096.4096 1.1714667.87146667 1.6856 1.3856.5237333.52373333.9904 1.0904 1.4 1.7.4.6.7477333 1.23813333 1.0432 1.9144.3045333.71413333.5282667 1.43306667.6712 2.1568.1525333.8378667.2288 1.5949333.2288 2.2712s-.0762667 1.4333333-.2288 2.2712c-.1429333.7237333-.3666667 1.4426667-.6712 2.1568-.2954667.6762667-.6432 1.3144-1.0432 1.9144-.4378667.6474667-.8949333 1.2093333-1.3712 1.6856-.4954667.4858667-1.0669333.9525333-1.7144 1.4-.6.4-1.2381333.7477333-1.9144 1.0432-.7141333.3045333-1.4330667.5282667-2.1568.6712-.8378667.1525333-1.5949333.2288-2.2712.2288zm0-21.3144c-.6762667 0-1.3429333.06186667-2 .1856-.6192.12373333-1.24293333.31893333-1.8712.5856-.6288.29546667-1.18586667.60026667-1.6712.9144-.51413333.31413333-1.00933333.72373333-1.4856 1.2288-.51413333.48586667-.92373333.97626667-1.2288 1.4712-.29546667.45706667-.60026667 1.01893333-.9144 1.6856-.24746667.55253333-.43786667 1.18586667-.5712 1.9-.13333333.6954667-.2 1.3525333-.2 1.9712s.06666667 1.2853333.2 2c.13333333.6858667.32373333 1.3096.5712 1.8712.29546667.6288.60026667 1.1858667.9144 1.6712.32373333.5333333.72373333 1.0333333 1.2 1.5.4192.4096.9192.8096 1.5 1.2.51413333.3429333 1.076.6525333 1.6856.9288.55253333.2474667 1.18586667.4378667 1.9.5712.6954667.1333333 1.3525333.2 1.9712.2s1.2853333-.0666667 2-.2c.6858667-.1333333 1.3096-.3237333 1.8712-.5712.5808-.2570667 1.1378667-.5666667 1.6712-.9288.5904-.3904 1.0904-.7904 1.5-1.2s.8096-.9096 1.2-1.5c.3621333-.5333333.6717333-1.0904.9288-1.6712.2474667-.5621333.4378667-1.1858667.5712-1.8712.1333333-.6474667.2-1.3141333.2-2 0-.6762667-.0666667-1.3333333-.2-1.9712-.1333333-.71413333-.3237333-1.34746667-.5712-1.9-.2762667-.6096-.5858667-1.17146667-.9288-1.6856-.3712-.55253333-.7712-1.04293333-1.2-1.4712-.4954667-.49546667-.9954667-.90506667-1.5-1.2288-.4858667-.31413333-1.0429333-.61893333-1.6712-.9144-.5621333-.24746667-1.1858667-.43786667-1.8712-.5712-.6474667-.13333333-1.3141333-.2-2-.2z" fill="#041e42" fill-rule="nonzero"/><g stroke="#041e42" stroke-linecap="round" stroke-width="1.5"><path d="m12 11v6"/><path d="m12 8.722766v-.222766"/></g></g></svg>