<?xml version="1.0" encoding="UTF-8"?>
<svg width="17px" height="15px" viewBox="0 0 17 15" version="1.1" xmlns="http://www.w3.org/2000/svg" xmlns:xlink="http://www.w3.org/1999/xlink">
    <!-- Generator: Sketch 61.2 (89653) - https://sketch.com -->
    <title>list-view</title>
    <desc>Created with Sketch.</desc>
    <g id="Page-1" stroke="none" stroke-width="1" fill="none" fill-rule="evenodd">
        <g id="Searched" transform="translate(-967.000000, -404.000000)">
            <g id="list-view" transform="translate(961.000000, 395.000000)">
                <polygon id="Path" points="0 0 32 0 32 32 0 32"></polygon>
                <path d="M6,18 L9,18 L9,15 L6,15 L6,18 Z M6,24 L9,24 L9,21 L6,21 L6,24 Z M6,12 L9,12 L9,9 L6,9 L6,12 Z M11,18 L23,18 L23,15 L11,15 L11,18 Z M11,24 L23,24 L23,21 L11,21 L11,24 Z M11,9 L11,12 L23,12 L23,9 L11,9 Z" id="Shape" fill="#041E42" fill-rule="nonzero"></path>
            </g>
        </g>
    </g>
</svg>