<svg viewBox="0 0 25 38" fill="#000000" xmlns="http://www.w3.org/2000/svg"><path d="m3.32531431 0c-.62179259 0-1.0568154.05111927-1.30506841.15335782-.51738712.16427092-.87990612.32854185-1.08755701.49281277-.33177739.30786439-.57016989.55427077-.71517749.73921915-.1450076.26650947-.2175114.5536964-.2175114.86156079l1.15020029 12.61497297c0 .1849484.05162271.3388806.15486812.4617966.1450076.164271.3108963.3182031.49766609.4617966s.42516229.2464064.71517749.3084388c.33177739.0815611.6009115.1223416.80740232.1223416.18676979 0 .44546335-.0407805.77608068-.1223416.24825302-.0620324.47620497-.1648453.68385585-.3084388.24825301-.1435935.43444277-.2975256.55856928-.4617966.1450076-.1435934.2175114-.2975256.2175114-.4617966l1.08755701-12.61497297c0-.34921931-.0725038-.63640624-.2175114-.86156079-.18676979-.24583201-.44546335-.48189966-.77608068-.70820296-.20765089-.18494838-.57016989-.35955804-1.08755701-.52382896-.22737192-.10223855-.64151363-.15335782-1.24242513-.15335782zm20.72622649 15.9991838c.2691341-.1435935.4866455-.3693224.6525342-.6771868.1867698-.3078644.2801547-.6260675.2801547-.9546093.0417622-.410103.00058-.8001028-.1235465-1.1699996-.1867698-.5123415-.3526585-.9121057-.4976661-1.1992926-.2076509-.3492193-.476785-.6875255-.8074023-1.0149186-.2900152-.2871869-.6113521-.5025771-.9640106-.6461706-.2900152-.1849484-.6212125-.2774226-.993592-.2774226-.3723796 0-.6623948.0717968-.8700456.2153902l-10.4405473 7.2612343c-.0417622.0413549-.1455877.1849484-.31147637.4307804-.1241265.2056259-.18618976.4210161-.18618976.6461706-.02088109.2056258 0 .4617966.06264329.7685122.06264328.2056259.17632924.4416935.34105784.708203.2900152.4101029.4454634.6254931.4663445.6461706.0823643.1022385.2894352.245832.6212125.4307804.1450076.1022385.362519.1740353.6525343.2153902.1241265.0206774.3004557 0 .5289877-.0620324zm-11.5907476 10.7695098c-.248253-.0620324-.4245823-.0827098-.5289877-.0620324-.2900152.0206775-.5075266.0717968-.6525342.1533578-.2900152.2056259-.4970861.3698968-.6212126.4928128-.1032454.1022386-.2586936.3176288-.4663445.6461706-.1658887.245832-.27957461.4715609-.34105783.6771868-.06264329.2665095-.08352438.5025771-.06264329.7082029 0 .2251546.06206326.4405448.18618976.6461706.16588866.287187.26971416.4514579.31147636.4928128l10.4405473 7.2612343c.2076508.1435935.497666.2153902.8700456.2153902.3723795 0 .7035768-.0924742.9935921-.2774226.3932606-.1849484.7145974-.4003386.9640105-.6461706.2691341-.2665094.5382682-.6048156.8074023-1.0149186.2691341-.4514578.4553239-.8414577.5585693-1.1699995.0626433-.4514579.0835244-.8512221.0626433-1.1992926 0-.3285419-.0933849-.646745-.2801547-.9546094-.1658887-.245832-.3834001-.4612222-.6525342-.6461706z"/></svg>