<?xml version="1.0" encoding="UTF-8"?>
<svg width="26px" height="29px" viewBox="0 0 26 29" version="1.1" xmlns="http://www.w3.org/2000/svg" xmlns:xlink="http://www.w3.org/1999/xlink">
    <!-- Generator: Sketch 61.2 (89653) - https://sketch.com -->
    <title>spark-yellow-spark</title>
    <desc>Created with Sketch.</desc>
    <g id="Page-1" stroke="none" stroke-width="1" fill="none" fill-rule="evenodd">
        <g id="spark-yellow-spark" fill="#FFC220" fill-rule="nonzero">
            <path d="M13,0.786 C12.6426667,0.786 12.3926667,0.815666667 12.25,0.875 C11.9526667,0.970333333 11.7443333,1.06566667 11.625,1.161 C11.4343333,1.33966667 11.2973333,1.48266667 11.214,1.59 C11.1306667,1.74466667 11.089,1.91133333 11.089,2.09 L11.75,9.411 C11.75,9.51833333 11.7796667,9.60766667 11.839,9.679 C11.9223333,9.77433333 12.0176667,9.86366667 12.125,9.947 C12.2323333,10.0303333 12.3693333,10.09 12.536,10.126 C12.7266667,10.1733333 12.8813333,10.197 13,10.197 C13.1073333,10.197 13.256,10.1733333 13.446,10.126 C13.5886667,10.09 13.7196667,10.0303333 13.839,9.947 C13.9816667,9.86366667 14.0886667,9.77433333 14.16,9.679 C14.2433333,9.59566667 14.285,9.50633333 14.285,9.411 L14.91,2.09 C14.91,1.88733333 14.8683333,1.72066667 14.785,1.59 C14.6776667,1.44733333 14.529,1.31033333 14.339,1.179 C14.2196667,1.07166667 14.0113333,0.970333333 13.714,0.875 C13.5833333,0.815666667 13.3453333,0.786 13,0.786 L13,0.786 Z M3,6.75 C2.86933333,6.66666667 2.69066667,6.625 2.464,6.625 C2.30933333,6.625 2.12466667,6.67866667 1.91,6.786 C1.684,6.90533333 1.49366667,7.03033333 1.339,7.161 C1.18433333,7.31566667 1.04133333,7.512 0.91,7.75 C0.767333333,8 0.660333333,8.232 0.589,8.446 C0.553,8.60066667 0.547,8.827 0.571,9.125 C0.595,9.387 0.642666667,9.57733333 0.714,9.696 C0.809333333,9.85066667 0.934333333,9.97566667 1.089,10.071 L7.75,13.16 C7.89266667,13.196 7.99966667,13.208 8.071,13.196 C8.26166667,13.172 8.38666667,13.1303333 8.446,13.071 C8.60066667,12.9756667 8.71366667,12.8923333 8.785,12.821 C8.84433333,12.7736667 8.93966667,12.6426667 9.071,12.428 C9.13033333,12.3446667 9.178,12.2136667 9.214,12.035 C9.25,11.8563333 9.262,11.7076667 9.25,11.589 C9.25,11.4816667 9.232,11.3566667 9.196,11.214 C9.172,11.1306667 9.10666667,11.0473333 9,10.964 L3,6.75 Z M24.911,10.071 C25.0656667,9.98766667 25.1906667,9.85666667 25.286,9.678 C25.3933333,9.49933333 25.447,9.31466667 25.447,9.124 C25.471,8.886 25.4473333,8.65966667 25.376,8.445 C25.2686667,8.14766667 25.1733333,7.91566667 25.09,7.749 C24.9706667,7.54633333 24.816,7.35 24.626,7.16 C24.4593333,6.99333333 24.2746667,6.86833333 24.072,6.785 C23.9053333,6.67766667 23.715,6.624 23.501,6.624 C23.287,6.624 23.1203333,6.66566667 23.001,6.749 L17.001,10.963 C16.977,10.987 16.9173333,11.0703333 16.822,11.213 C16.7506667,11.3323333 16.715,11.4573333 16.715,11.588 C16.703,11.7073333 16.715,11.856 16.751,12.034 C16.787,12.1533333 16.8523333,12.2903333 16.947,12.445 C17.1136667,12.683 17.203,12.808 17.215,12.82 C17.2623333,12.8793333 17.3813333,12.9626667 17.572,13.07 C17.6553333,13.1293333 17.7803333,13.171 17.947,13.195 C18.0183333,13.207 18.1196667,13.195 18.251,13.159 L24.911,10.071 Z M1.089,19.411 C0.934333333,19.4943333 0.809333333,19.6193333 0.714,19.786 C0.642666667,19.8933333 0.595,20.078 0.571,20.34 C0.547,20.6373333 0.553,20.8693333 0.589,21.036 C0.648333333,21.2266667 0.755333333,21.453 0.91,21.715 C1.07666667,21.977 1.23133333,22.1793333 1.374,22.322 C1.46933333,22.4173333 1.648,22.5363333 1.91,22.679 C2.124,22.7863333 2.30866667,22.84 2.464,22.84 C2.69,22.84 2.86866667,22.7983333 3,22.715 L9,18.501 C9.11933333,18.3816667 9.18466667,18.2863333 9.196,18.215 C9.232,18.1076667 9.25,17.9826667 9.25,17.84 C9.262,17.7206667 9.25,17.5836667 9.214,17.429 C9.178,17.2503333 9.13033333,17.1193333 9.071,17.036 C8.97566667,16.8813333 8.88033333,16.7563333 8.785,16.661 C8.67766667,16.5536667 8.56466667,16.4583333 8.446,16.375 C8.36266667,16.3276667 8.23766667,16.298 8.071,16.286 C8.01166667,16.274 7.90466667,16.286 7.75,16.322 L1.089,19.411 Z M18.25,16.321 C18.1073333,16.285 18.006,16.273 17.946,16.285 C17.7793333,16.297 17.6543333,16.3266667 17.571,16.374 C17.4043333,16.4933333 17.2853333,16.5886667 17.214,16.66 C17.1546667,16.7193333 17.0653333,16.8443333 16.946,17.035 C16.8506667,17.1776667 16.7853333,17.3086667 16.75,17.428 C16.714,17.5826667 16.702,17.7196667 16.714,17.839 C16.714,17.9696667 16.7496667,18.0946667 16.821,18.214 C16.9163333,18.3806667 16.976,18.476 17,18.5 L23,22.714 C23.1193333,22.7973333 23.286,22.839 23.5,22.839 C23.714,22.839 23.9043333,22.7853333 24.071,22.678 C24.297,22.5706667 24.4816667,22.4456667 24.625,22.303 C24.7796667,22.1483333 24.9343333,21.952 25.089,21.714 C25.2436667,21.452 25.3506667,21.2256667 25.41,21.035 C25.446,20.773 25.458,20.541 25.446,20.339 C25.446,20.1483333 25.3923333,19.9636667 25.285,19.785 C25.1896667,19.6423333 25.0646667,19.5173333 24.91,19.41 L18.25,16.321 Z M13,19.304 C12.8806667,19.304 12.726,19.3276667 12.536,19.375 C12.3933333,19.411 12.2683333,19.4646667 12.161,19.536 C12.125,19.572 12.0803333,19.6076667 12.027,19.643 C11.9736667,19.6783333 11.932,19.708 11.902,19.732 C11.872,19.756 11.851,19.774 11.839,19.786 C11.7796667,19.8813333 11.75,19.9706667 11.75,20.054 L11.089,27.375 C11.089,27.5776667 11.1306667,27.7563333 11.214,27.911 C11.2973333,28.0183333 11.4343333,28.1613333 11.625,28.34 C11.7443333,28.4353333 11.9526667,28.5306667 12.25,28.626 C12.3926667,28.6853333 12.6426667,28.715 13,28.715 C13.3453333,28.715 13.5833333,28.6853333 13.714,28.626 C14,28.5306667 14.2083333,28.4353333 14.339,28.34 C14.5296667,28.1733333 14.6783333,28.0303333 14.785,27.911 C14.8683333,27.7563333 14.91,27.5776667 14.91,27.375 L14.285,20.054 C14.285,19.9706667 14.2433333,19.8813333 14.16,19.786 C14.136,19.762 14.0406667,19.6786667 13.874,19.536 C13.7546667,19.4646667 13.6176667,19.411 13.463,19.375 C13.2723333,19.3276667 13.1176667,19.304 12.999,19.304 L13,19.304 Z" id="Shape"></path>
        </g>
    </g>
</svg>