<svg viewBox="0 0 30 22" fill="#000000" xmlns="http://www.w3.org/2000/svg"><path d="m17.25 3.964c.214-.536.5236667-1.042.929-1.518.3693333-.45266667.8096667-.86333333 1.321-1.232.464-.33333333 1.0176667-.58933333 1.661-.768.6306667-.19066667 1.2436667-.286 1.839-.286.464 0 .8686667.04166667 1.214.125.4526667.11933333.8513333.24433333 1.196.375.3693333.13066667.7206667.30933333 1.054.536.3806667.262.696.518.946.768.286.286.536.58966667.75.911.238.36933333.4226667.72633333.554 1.071.1426667.36933333.2676667.774.375 1.214.0833333.34533333.125.75.125 1.214 0 .488-.0296667.851-.089 1.089-.1073333.488-.2026667.845-.286 1.071-.1306667.32133333-.2973333.65466667-.5 1-.0833333.15466667-.3036667.45233333-.661.893l-3.804 4.286v6.946h-10.661v-5.339h-1.786v5.339h-10.643v-16h4.643l6.911-5.321zm-4.911-1.375-6.286 4.839h-3.5v12.446h7.107v-5.304h5.339v5.304h7.089v-5.161l-3.786-4.286c-.3093333-.3693333-.5236667-.655-.643-.857-.226-.40466667-.3866667-.738-.482-1-.0953333-.25-.1966667-.619-.304-1.107-.0593333-.238-.089-.601-.089-1.089v-.411c0-.05933333.006-.101.018-.125zm10.661-.66c-.5473333 0-1.1126667.119-1.696.357-.5593333.226-1.0356667.53566667-1.429.929-.4166667.41666667-.738.90466667-.964 1.464-.238.536-.357 1.10133333-.357 1.696 0 .19066667.0236667.45266667.071.786.036.25.1073333.5.214.75.0713333.226.1843333.464.339.714l.482.661 3.339 3.75 3.339-3.786.464-.661c.1193333-.17866667.2383333-.405.357-.679.024-.05933333.0836667-.30933333.179-.75.0593333-.19066667.089-.45266667.089-.786 0-.63066667-.113-1.196-.339-1.696-.226-.55933333-.5356667-1.03566667-.929-1.429-.4166667-.41666667-.9106667-.738-1.482-.964-.5833333-.238-1.143-.357-1.679-.357zm0 6.232c-.25 0-.4763333-.04166667-.679-.125-.214-.09533333-.4043333-.23233333-.571-.411-.1786667-.16666667-.3156667-.357-.411-.571-.0833333-.20266667-.125-.429-.125-.679 0-.29733333.0416667-.52933333.125-.696.0833333-.20266667.2083333-.38733333.375-.554.1786667-.17866667.381-.31566667.607-.411.214-.08333333.4403333-.125.679-.125s.465.04166667.679.125c.214.10733333.4043333.24433333.571.411.1906667.19066667.3276667.387.411.589s.125.42233333.125.661c0 .25-.0416667.47633333-.125.679-.0953333.238-.2203333.42833333-.375.571-.1786667.17866667-.381.31566667-.607.411-.1666667.08333333-.393.125-.679.125z"/></svg>