<svg viewBox="0 0 18 22" fill="#000000" xmlns="http://www.w3.org/2000/svg"><path d="m4.851 10.3434964c-.268-.2500967-.527-.5449606-.777-.88459182-.1875-.25910011-.375-.61198645-.5625-1.05865903-.143-.32162426-.2635-.71452607-.3615-1.17870541s-.147-.87058636-.147-1.21922106c0-.41966214.04025-.82606917.12075-1.21922106.0895-.41966215.2055-.79480709.348-1.12543483.143-.31262079.3305-.65650365.5625-1.03164859.2145-.29461383.4555-.58497602.723-.87108656.1875-.17856899.4865-.42866562.897-.75028988.259-.16956552.59375-.34813451 1.00425-.53570698.3395-.14305527.7235-.25910011 1.152-.34813451.384-.08053111.78125-.12079667 1.19175-.12079667.4285 0 .83475.04026556 1.21875.12079667.402.08953459.777.20557943 1.125.34813451.4105.18757247.74525.36614146 1.00425.53570698.3215.2145829.6205.46017779.897.73678466.2945.29461383.5445.58947776.75.88459178.1695.2591001.348.60298297.5355 1.03164859.143.33963122.259.72377964.348 1.15244526.0805.3931519.12075.79055544.12075 1.19221063 0 .3931519-.04475.79955892-.13425 1.21922106-.0805.41966214-.201.81256395-.3615 1.17870541-.1875.41966214-.3795.76804674-.576 1.04515381-.277.36614146-.536.66525704-.777.89734674.3395.1070413.68325.2455948 1.03125.4156606.2945.1430552.598.3306277.9105.5627174.2945.2055794.56675.4334174.81675.6835141.3125.3126207.558.5894777.7365.8305709.1785.2591001.366.5717209.5625.9378623.1875.3216243.33475.6565037.44175 1.0046382.134.3841484.22775.7415365.28125 1.0721642.0445.3126208.06675.6967692.06675 1.1524453v4.9976809h-18v-4.9976809c0-.4466726.03125-.830821.09375-1.1524453.098-.455676.18275-.8130641.25425-1.0721642.0805-.2320897.23225-.5669691.45525-1.0046382.232-.4021554.424-.7102744.576-.9243571.152-.2230862.3885-.4954414.7095-.8170657.277-.2856104.54925-.5222018.81675-.7097742.2945-.2055795.607-.3931519.9375-.5627175.3395-.1785689.67425-.3171225 1.00425-.4156605zm-2.85225 9.6599822h14.00925v-3.0011595c0-.375145-.03125-.701271-.09375-.978378-.0895-.3841485-.18775-.7057727-.29475-.9648728-.0895-.2230862-.24575-.5044449-.46875-.8440761-.1785-.2856104-.38375-.535707-.61575-.7502899-.1965-.2320897-.4375-.4419208-.723-.6294932-.3215-.2055795-.61175-.3573881-.87075-.455426-.2855-.1250483-.598-.2188346-.9375-.2813587-.277-.0625242-.61175-.0937862-1.00425-.0937862h-3.99075c-.375 0-.701.031262-.978.0937862-.348.0715276-.6695.1653139-.9645.2813587-.232.0895346-.51325.2413432-.84375.455426-.241.160562-.491.3703931-.75.6294932-.241.2410931-.442.4821863-.603.7232794-.2145.3481345-.37525.6384967-.48225.8710866-.0895.2500966-.17875.5627174-.26775.9378623-.0805.3481345-.12075.6830139-.12075 1.0046382v3.0011595zm7.00425-18.00695722c-.5445 0-1.06225.10278972-1.55325.30836915-.4645.18757247-.893.47793465-1.2855.87108655-.366.36614147-.65175.79480709-.85725 1.28599686-.2055.46467954-.30825.97837801-.30825 1.54109543 0 .55371393.10275 1.06291067.30825 1.5275902.2055.49118978.49125.9198554.85725 1.28599687.402.40215537.8305.70127094 1.2855.8973467.482.18757247.99975.2813587 1.55325.2813587.5805 0 1.09825-.09378623 1.55325-.2813587.4555-.20557943.884-.504695 1.2855-.8973467.366-.36614147.65175-.79480709.85725-1.28599687.2055-.46467953.30825-.97387627.30825-1.5275902 0-.56271742-.10275-1.07641589-.30825-1.54109543-.2055-.49118977-.49125-.91985539-.85725-1.28599686-.393-.3931519-.8215-.68351408-1.2855-.87108655-.4645-.20557943-.98225-.30836915-1.55325-.30836915z"/></svg>