<svg viewBox="0 0 136 38" fill="#000000" xmlns="http://www.w3.org/2000/svg"><path d="m2.27906846 34.7524592c.36974343.1799384.93735264.3607263 1.52244917.3607263.63043402 0 .96415034-.2486702.96415034-.626927 0-.3615759-.28837883-.5669991-1.01774573-.8165189-1.00940688-.3368632-1.66663859-.8676429-1.66663859-1.7105733 0-.9893523.86521746-1.7450164 2.2970726-1.7450164.68491997 0 1.18970437.1375409 1.54924687.2936162l-.30594711 1.056308c-.2431223-.1119788-.67569055-.2760085-1.27009745-.2760085-.59529746 0-.88278574.2592503-.88278574.5581179 0 .3703025.34205519.5334827 1.12590804.8173684 1.07223168.3782568 1.57701608.9108127 1.57701608 1.726482 0 .9716674-.78385285 1.8057939-2.45146296 1.8057939-.69325883 0-1.37825975-.1790117-1.72023398-.3606491zm8.52280084.3261287c0 .4047456.0184588.7908795.0628248 1.0219421h-1.23407036l-.08039309-.4205771h-.02776921c-.28837883.336786-.73859632.5157977-1.26086804.5157977-.89201515 0-1.42351629-.6181232-1.42351629-1.2890695 0-1.0907511 1.02697516-1.6154299 2.58545145-1.6065488v-.0607775c0-.2231082-.12662114-.5405103-.80142114-.5405103-.4519986 0-.92804226.1454953-1.21650206.3174793l-.25235172-.8420809c.30594711-.1631029.90958344-.3703024 1.71197609-.3703024 1.46788227 0 1.93655857.8261722 1.93655857 1.8137483v1.4608991zm-1.33291554-.9628636c-.7210348-.0078771-1.27933363.1552259-1.27933363.6622197 0 .3350871.23389289.4990395.54073056.4990395.34205518 0 .6212046-.2150766.71179862-.4814318.01809257-.0733945.02708673-.1485618.02680445-.2239576zm3.32420294-2.2165632.5944069 1.9504397c.1033761.3363441.1876162.6777727.2523517 1.0227916h.0267977c.0721352-.3438137.1441894-.661293.2440129-1.0227916l.5666377-1.9504397h1.442056l-1.6398409 4.2016005h-1.3690303l-1.6038138-4.2016005zm4.6768861 2.5179022c.0434754.5405102.6026648.7997606 1.2423283.7997606.4686763 0 .8467586-.0617042 1.216502-.1719841l.1802166.8853279c-.4511081.1710573-1.0001775.2653512-1.595475.2653512-1.4956514 0-2.3516395-.8331998-2.3516395-2.1487581 0-1.0643395.6942304-2.2432064 2.225909-2.2432064 1.4235162 0 1.9643278 1.0572347 1.9643278 2.0967844 0 .2239577-.0276883.4223533-.0452566.5167245zm1.6120717-.8941318c0-.3174021-.1441894-.8508847-.775514-.8508847-.5758671 0-.8106505.4990395-.8467586.8508847zm3.9099539-.2838084c0-.5237521-.0184588-.9707407-.0369986-1.3401937h1.1535963l.0628248.5669991h.0277692c.1895269-.266278.5768386-.6622197 1.3338938-.6622197.5666376 0 1.0177457.2750818 1.2071916.7133438h.0175683c.1627292-.2239576.360514-.3853616.5675283-.5060671.2431223-.1384676.5139328-.2072767.8384197-.2072767.8457871 0 1.4854506.5678486 1.4854506 1.8226294v2.4741918h-1.3329223v-2.2846c0-.6101689-.2070952-.9629408-.6480023-.9629408-.316148 0-.5407305.2063499-.6313246.4558697-.0360271.0943711-.0545669.231912-.0545669.3341603v2.4575108h-1.3329222v-2.3544131c0-.5316292-.1987564-.893205-.6304341-.893205-.3512846 0-.5582988.2584009-.6396634.4717785-.0453375.103175-.0545669.2239576-.0545669.3271326v2.4486297h-1.3328413zm12.0992812.7137299c0 1.5377398-1.1443668 2.2432065-2.3238703 2.2432065-1.2885562 0-2.2804758-.807715-2.2804758-2.1656708 0-1.3578785.9382432-2.226371 2.3516395-2.226371 1.3514621 0 2.2527066.8861774 2.2527066 2.1488353m-3.1890877.0431698c0 .7221477.3151765 1.2635847.9012446 1.2635847.5306105 0 .8735563-.5069939.8735563-1.2635847 0-.6277765-.2523517-1.2626579-.8735563-1.2626579-.6581223 0-.9012446.6428357-.9012446 1.2626579m4.0358464-.7568997c0-.5237521-.0175683-.9707407-.0351366-1.3401937h1.1887329l.0628248.5748762h.0267977c.181188-.2662779.6313245-.670174 1.3606914-.670174.9012446 0 1.5770161.5678485 1.5770161 1.8049444v2.4918767h-1.3699209v-2.327847c0-.541437-.1987563-.9117394-.6932588-.9117394-.3789729 0-.6036363.2504465-.6932588.4902356-.0369987.0855673-.0545669.2072767-.0545669.3271327v2.4222181h-1.3699209zm6.3334857 1.1779402c.0452565.5405102.6036363.7997606 1.2441903.7997606.4686763 0 .8467586-.0617042 1.2155305-.1719841l.1811881.8853279c-.4511081.1710573-1.001068.2653512-1.5954749.2653512-1.4956515 0-2.3516395-.8331998-2.3516395-2.1487581 0-1.0643395.6942303-2.2432064 2.2259089-2.2432064 1.4235163 0 1.9633563 1.0572347 1.9633563 2.0967844 0 .2239577-.0259072.4223533-.044366.5167245zm1.6129622-.8941318c0-.3174021-.1432988-.8508847-.7746234-.8508847-.5768386 0-.8106506.4990395-.8467586.8508847zm3.0636001-1.6237704.6572317 2.0633453c.0721352.2486702.1626483.558118.2163246.7812262h.0267977c.0637963-.2231082.13496-.5405103.1987563-.7812262l.5407306-2.0633453h1.4688538l-1.0278658 2.7669585c-.630434 1.6674036-1.0537728 2.3375004-1.5483563 2.7581547-.4787963.3958645-.9826091.5334054-1.3255549.5757257l-.2883788-1.1074321c.1719586-.0264116.3873117-.103175.5944069-.2231082.2079857-.1040245.4325682-.3103745.5684997-.5255283.044366-.059928.0721352-.1269608.0721352-.188665 0-.0423203-.0092294-.1110521-.0637963-.2142271l-1.6120717-3.8418782zm4.3755537 4.2965123c-.4603374 0-.7930823-.3341603-.7930823-.7908795 0-.4629746.3327449-.7979844.8106506-.7979844s.8023926.3253564.8023926.7979844c0 .4567192-.3244869.7908795-.811622.7908795zm3.8769223-5.8874613h1.3781788v4.6936124h2.4154358v1.0986282h-3.7936146zm6.1538359.4219672c0 .3614985-.2883788.6541881-.7385963.6541881-.4335398 0-.7210281-.2926896-.7117986-.6541881-.0092295-.3782568.2782588-.6604435.7200565-.6604435.4418786 0 .721109.2821867.7303384.6604435m-1.4152584 5.3707368v-4.2015233h1.3699209v4.2014461h-1.3699209zm3.6673983-4.201755.594326 1.9504397c.1071907.3536215.1895269.6877046.2523517 1.0227916h.0267977c.0711636-.3438137.1441894-.661293.2440128-1.0227916l.5675283-1.9504397h1.4420561l-1.6398409 4.2016005h-1.3708115l-1.6028422-4.2016005zm4.6766433 2.5179022c.0452565.5405102.6036363.7997606 1.2424092.7997606.4695669 0 .8476492-.0617042 1.216502-.1719841l.1802166.8853279c-.4501366.1710573-1.0001775.2653512-1.5936129.2653512-1.4956514 0-2.35253-.8331998-2.35253-2.1487581 0-1.0643395.6942303-2.2432064 2.2259089-2.2432064 1.4235163 0 1.9643278 1.0572347 1.9643278 2.0967844 0 .2239577-.0277692.4223533-.0471186.5167245zm1.6130432-.8941318c0-.3174021-.1441894-.8508847-.7764855-.8508847-.5768387 0-.80976.4990395-.8448966.8508847zm3.9093062-3.5229315h1.3690303v2.3975056h.0184589c.2615811-.3614986.7219186-.5934106 1.3338937-.5934106 1.0537729 0 1.8293678.8341265 1.8191669 2.123196 0 1.5122549-1.0085163 2.267919-2.0170326 2.267919-.5130423 0-1.0103784-.1781622-1.325555-.6780512h-.0184588l-.0535954.5836801h-1.1619351c.0175682-.2742323.0360271-.7812262.0360271-1.2538541zm1.3690223 4.3135021c0 .0855673.0092374.1640297.0268057.2328388.0897035.3509185.4057706.6181232.8032832.6181232.5850966 0 .9456106-.4293809.9456106-1.1858945 0-.6534159-.3069187-1.1683641-.9456106-1.1683641-.3707149 0-.7136607.2653513-.8032832.6445348-.0181274.0793769-.0271132.1604047-.0268057.2416426zm5.1006378.1035612c.0453375.5405102.6036363.7997606 1.2424092.7997606.4686763 0 .8467586-.0617042 1.2165021-.1719841l.1802974.8853279c-.4501365.1710573-1.001068.2653512-1.5954749.2653512-1.4946799 0-2.350668-.8331998-2.350668-2.1487581 0-1.0643395.6942304-2.2432064 2.225909-2.2432064 1.4235163 0 1.9633562 1.0572347 1.9633562 2.0967844 0 .2239577-.0267977.4223533-.0443659.5167245zm1.6112621-.8941318c0-.3174021-.145161-.8508847-.7727614-.8508847-.5768386 0-.8116221.4990395-.8476492.8508847zm3.8020344-2.7671902v1.1436515h.9834998v.9610874h-.9834998v1.5219082c0 .5078434.1266212.7389059.5407306.7389059.1895269 0 .2717821-.0079543.4067421-.0343659l.0083388.9893524c-.1802975.0670328-.5047034.1190064-.8929867.1190064-.4409071 0-.8097599-.1533724-1.0260846-.3685262-.2523517-.2495197-.3789728-.6534158-.3789728-1.2458997v-1.7203039h-.5850965v-.9610874h.5850965v-.7909567zm3.4875866 0v1.1436515h.9807471v.9610874h-.9807471v1.5219082c0 .5078434.1266211.7389059.5388685.7389059.1895269 0 .2708105-.0079543.4067421-.0343659l.0083388.9893524c-.1802975.0670328-.5028413.1190064-.8920151.1190064-.4400166 0-.8106506-.1533724-1.0269752-.3685262-.2514612-.2495197-.3780823-.6534158-.3780823-1.2458997v-1.7203039h-.586068v-.9610874h.586068v-.7909567zm3.0078997 3.661322c.0452566.5405102.6045269.7997606 1.2460524.7997606.4668143 0 .8448966-.0617042 1.2136685-.1719841l.179326.8853279c-.449246.1710573-.9974249.2653512-1.5927223.2653512-1.4956515 0-2.3516395-.8331998-2.3516395-2.1487581 0-1.0643395.6942303-2.2432064 2.2259089-2.2432064 1.4216542 0 1.9643278 1.0572347 1.9643278 2.0967844 0 .2239577-.0277692.4223533-.0462281.5167245zm1.6139338-.8941318c0-.3174021-.1441894-.8508847-.7746235-.8508847-.5777291 0-.811622.4990395-.8485397.8508847zm2.2689795-.2408703c0-.6189727-.0166777-1.0219421-.034165-1.3825912h1.180394l.0452565.7732718h.0360271c.2246635-.611945.7645035-.8693419 1.1878423-.8693419.1257306 0 .1895269 0 .2883789.0176077v1.2379454c-.0989329-.0264116-.2163247-.0423203-.3697435-.0423203-.5047034 0-.8457871.2574741-.9354906.661293-.0175682.0864168-.0267977.1895145-.0267977.2926895v2.1303009h-1.3717829v-2.8188549zm4.113163 2.9136122c-.4594469 0-.7913011-.3341603-.7913011-.7908795 0-.4629746.3318542-.7979844.8097601-.7979844.477015 0 .801421.3253564.801421.7979844 0 .4567192-.324487.7908795-.810651.7908795z" fill="#0071ce"/><path d="m119.497022 10.7726621c.762949 0 1.390553-.3891022 1.474829-.89305928l.754586-8.37228097c0-.82745065-.986386-1.50732185-2.226654-1.50732185-1.239457 0-2.223894.6798712-2.223894 1.50732185l.752719 8.37228097c.08249.50395708.711068.89305928 1.471175.89305928zm-4.603267 2.6156444c.382814-.6488229.353179-1.3778606-.050095-1.7013541l-6.999853-4.82630335c-.726738-.41464321-1.818752.08380662-2.438968 1.14000943-.621108 1.05444686-.51077 2.23276792.215968 2.64557532l7.750704 3.5486116c.484871.176792 1.14487-.1630637 1.524923-.8110086zm9.20962-.0046293c.381921.6480246 1.039159.9878804 1.52403.8110884l7.751679-3.5486116c.729579-.4128074.834315-1.59120829.217834-2.64557534-.622001-1.05620281-1.715883-1.55473245-2.441728-1.14000942l-6.999853 4.82630326c-.400514.3235734-.430148 1.0526111-.04912 1.701434zm-4.606353 7.8463745c.762949 0 1.390553.3873462 1.474829.8913033l.754586 8.3713231c0 .8293663-.986386 1.5073219-2.226654 1.5073219-1.239457 0-2.223894-.6780354-2.223894-1.5073219l.752719-8.3713231c.08249-.5039571.711068-.8913033 1.471175-.8913033zm4.606353-2.6146068c.381921-.6497009 1.039159-.9869227 1.52403-.8074169l7.751679 3.5441419c.729579.4146432.834315 1.5938422.217834 2.649167-.622001 1.0525313-1.715883 1.5528967-2.441728 1.1400094l-6.999853-4.8226317c-.400514-.3280431-.430148-1.0570808-.04912-1.7050257zm-9.20962-.0013569c.382814.6480247.353179 1.3770624-.050095 1.7042275l-6.999853 4.8226318c-.726738.4128074-1.818752-.0874782-2.438968-1.1400893-.621108-1.055245-.51077-2.2336458.215968-2.649167l7.750704-3.5440621c.484871-.1795856 1.14487.1585142 1.525898.8082949z" fill="#fdbb30"/><path d="m79.5257734 17.3105481c0-3.18076-1.3651804-5.9790322-5.9817167-5.9790322-2.370032 0-4.2514441.662026-5.2774488 1.2516177l.751257 2.5562361c.9375169-.5886282 2.4336526-1.0755111 3.8486476-1.0755111 2.3414511-.0064244 2.7249514 1.3175472 2.7249514 2.1666011v.2017236c-5.1050754-.0082713-8.3305956 1.749422-8.3305956 5.3317019 0 2.1867574 1.6426731 4.2360345 4.4994679 4.2360345 1.7561084 0 3.2255202-.6968779 4.1049066-1.8136652h.0866307s.5835663 2.4260633 3.7970567 1.4982312c-.1686594-1.0104649-.223076-2.0868593-.223076-3.3824033v-4.9915343zm-3.810782 3.3594364c0 .2585788-.0230908.5263122-.0949466.7601574-.2950127.971919-1.3080994 1.7943119-2.5737312 1.7943119-1.0564424 0-1.8944108-.5959357-1.8944108-1.8566278 0-1.928259 2.134038-2.4617986 4.5630886-2.4490302zm-75.7149914-13.6699845s3.33516092 13.5939366 3.86705567 15.799967c.62127051 2.575509 1.74133363 3.5235777 4.96863004 2.8845187l2.08244709-8.4289458c.5272927-2.0932836.8822122-3.5859738 1.2214687-5.7149927h.0599067c.237851 2.1501388.5779956 3.6281334 1.0121987 5.7223004 0 0 .8471723 3.826163 1.2813754 5.8360108.4360601 2.0088842 1.6472751 3.2741535 4.8082866 2.5856273l4.9622518-18.6844857h-4.0062461l-1.6943448 8.0779371c-.4553561 2.3508988-.8683254 4.188334-1.1873169 6.3393561h-.0562737c-.2904106-2.1299825-.6581672-3.8940198-1.1218393-6.1844497l-1.7644244-8.2328435h-4.1740174l-1.88609487 8.0256592c-.5346398 2.4380286-1.03520863 4.4074835-1.35323131 6.4851079h-.05716173c-.32536974-1.9566866-.75957283-4.4313338-1.22881574-6.7923509 0 0-1.12095122-5.73972634-1.51454365-7.7184162zm35.6498661 10.3105481c0-3.18076-1.3661493-5.9790322-5.9808287-5.9790322-2.37092 0-4.2524129.662026-5.2784176 1.2516177l.7503689 2.5562361c.9393739-.5886282 2.4336526-1.0755111 3.8486476-1.0755111 2.343308-.0064244 2.7268083 1.3175472 2.7268083 2.1666011v.2017236c-5.1060442-.0082713-8.3314837 1.749422-8.3314837 5.3317019 0 2.1867574 1.6426731 4.2360345 4.4967228 4.2360345 1.7579655 0 3.2272964-.6968779 4.1086205-1.8136652h.0857426s.5834857 2.4260633 3.7970568 1.4982312c-.1687401-1.0104649-.2230761-2.0868593-.2230761-3.3824033v-4.9915343zm-3.8108628 3.3594364c0 .2585788-.0221219.5263122-.0949466.7601574-.2950127.971919-1.3080994 1.7943119-2.5737312 1.7943119-1.0554736 0-1.8943301-.5959357-1.8943301-1.8566278 0-1.928259 2.134038-2.4617986 4.5630886-2.4490302v1.7511887zm10.1692172 1.0471638v-14.71690739h-3.814496v18.68432509h3.814496zm49.9083269-14.71698769v13.78361459c0 1.8998314.3595214 3.2311106 1.1292671 4.0444292.6719733.7114932 1.7782304 1.1717956 3.1056259 1.1717956 1.1274102 0 2.2373005-.2127252 2.7599912-.4061775l-.0488458-2.9643408c-.3889904.0944375-.8369995.1705656-1.449066.1705656-1.2997835 0-1.7348747-.8279339-1.7348747-2.5333494v-5.27308h3.3213549v-3.5748919h-3.3213549v-4.41856539zm-9.847077 4.64791359v14.0366524h3.9352784v-7.1874464c0-.3877878.02301-.7261888.0847738-1.0360818.2912987-1.5054586 1.4491467-2.4683032 3.1111967-2.4683032.4553562 0 .7816947.0495476 1.1357261.1008618v-3.675834c-.2967889-.0586219-.4987119-.0861662-.8674374-.0861662-1.4684428 0-3.1388087.9426081-3.8403317 2.9642605h-.1068957v-2.6479431zm-37.3895849 0v14.0366524h3.8348416v-8.2317995c0-.3860212.0442439-.7940457.1798011-1.1489089.3180227-.8288976 1.0923704-1.798006 2.3303901-1.798006 1.5477266 0 2.2713715 1.301085 2.2713715 3.1789131v7.9998013h3.8311277v-8.3316977c0-.3685952.0507028-.8114716.1594554-1.1379072.3152776-.9426081 1.1504202-1.7091095 2.3009211-1.7091095 1.5689604 0 2.3211861 1.2781983 2.3211861 3.4878424v7.690872h3.8338728v-8.2675348c0-4.3597829-2.2252706-6.085435-4.7382069-6.085435-1.1126353 0-1.9902455.2768881-2.7848581.7619241-.6673713.4071412-1.2647437.9865343-1.7874344 1.7484584h-.0561929c-.6065764-1.5128465-2.0317443-2.5103825-3.8891776-2.5103825-2.386583 0-3.4596572 1.2029535-4.1104774 2.2234564h-.0561929v-1.907139z" fill="#0071ce"/><path d="m135.504466 25c.27924 0 .495534.2221813.495534.4982508 0 .2831277-.216294.5017492-.498291.5017492-.2793 0-.501709-.2186215-.501709-.5017492 0-.2760695.222469-.4982508.501709-.4982508zm-.006175.1002271c-.213536 0-.374378.1794022-.374378.3980237 0 .2221813.160842.3987602.380553.3987602.213537.0027619.370961-.1765789.370961-.3987602 0-.2186215-.157424-.3980237-.373718-.3980237zm-.073916.656601h-.112943v-.4954889c.061542-.0124043.124137-.0185106.186859-.018238.092441 0 .133506.0154761.169055.03929.026677.0217271.047899.0609464.047899.1064875 0 .0575093-.041784.1002271-.101313.1184557v.0062604c.047899.0154668.074636.0546861.089683.1212791.014388.0764132.02326.1064874.035609.1219542h-.121815c-.015047-.0182287-.023979-.0610078-.039026-.1184558-.008873-.0546861-.038307-.0792365-.100594-.0792365h-.053414zm.002758-.2796293h.053354c.062286 0 .112943-.0209906.112943-.0728534 0-.045541-.032852-.0764132-.104071-.0764132-.029435 0-.050656.0034985-.062286.0062604v.1430062z"/></svg>