<?xml version="1.0" encoding="UTF-8"?>
<svg width="134px" height="32px" viewBox="0 0 134 32" version="1.1" xmlns="http://www.w3.org/2000/svg" xmlns:xlink="http://www.w3.org/1999/xlink">
    <!-- Generator: Sketch 61.2 (89653) - https://sketch.com -->
    <title>walmart</title>
    <desc>Created with Sketch.</desc>
    <g id="Page-1" stroke="none" stroke-width="1" fill="none" fill-rule="evenodd">
        <g id="Searched" transform="translate(-1284.000000, -15.000000)" fill-rule="nonzero">
            <g id="walmart" transform="translate(1284.000000, 15.000000)">
                <path d="M117.996379,10.7724695 C118.732844,10.7724695 119.339033,10.3826172 119.420895,9.87894602 L120.14797,1.50683128 C120.14797,0.679328774 119.195848,0 117.998727,0 C116.802779,0 115.851537,0.679328774 115.851537,1.50698065 L116.578172,9.87894602 C116.658127,10.3824679 117.264316,10.7724695 117.998873,10.7724695 L117.996379,10.7724695 M113.552213,13.387467 C113.921619,12.7389082 113.893745,12.009989 113.504387,11.6861577 L106.745639,6.85900997 C106.042917,6.44466124 104.989275,6.94340327 104.391301,7.9992905 C103.791273,9.05383341 103.897635,10.2316055 104.59845,10.6461036 L112.082365,14.1939086 C112.550211,14.3704623 113.188089,14.0306486 113.55456,13.3825379 L113.552213,13.387467 M122.444507,13.382986 C122.813326,14.0310967 123.447976,14.3710598 123.916262,14.1943567 L131.400177,10.6465517 C132.105393,10.232203 132.205594,9.05428151 131.611141,7.9997386 C131.010233,6.94489696 129.954683,6.44510934 129.253868,6.85945807 L122.49468,11.6866058 C122.108257,12.009989 122.079502,12.7395057 122.446854,13.3879151 L122.444507,13.382986 M117.996379,21.2305179 C118.732844,21.2305179 119.339033,21.617084 119.420895,22.1212034 L120.14797,30.4921231 C120.14797,31.3221649 119.195848,32 117.998727,32 C116.802779,32 115.851537,31.3221649 115.851537,30.4921231 L116.578172,22.1212034 C116.658127,21.617084 117.264316,21.2305179 117.998873,21.2305179 L117.996379,21.2305179 M122.444507,18.6149229 C122.813326,17.9650197 123.447976,17.628044 123.916262,17.8066889 L131.400177,21.352104 C132.105393,21.7669008 132.205594,22.9458679 131.611141,24.001307 C131.010233,25.0527131 129.954683,25.5538451 129.253868,25.1400938 L122.49468,20.3174271 C122.108257,19.9915047 122.079502,19.2615399 122.446854,18.6135785 L122.44392,18.6135785 M113.552213,18.6140267 C113.921619,19.2615399 113.893745,19.9915047 113.504387,20.3180246 L106.745639,25.1405419 C106.042917,25.5542932 104.989275,25.0531612 104.391301,24.0017551 C103.791273,22.946316 103.897635,21.7673489 104.59845,21.3525521 L112.082365,17.807137 C112.550211,17.6284921 113.188089,17.9654678 113.55456,18.6155203 L113.552213,18.6155203" id="Shape" fill="#FDBB30"></path>
                <path d="M74.9488833,20.6697275 C74.9488833,20.9281941 74.9260003,21.1947753 74.8555565,21.428898 C74.5633121,22.4013034 73.5612457,23.2235878 72.3076158,23.2235878 C71.2623259,23.2235878 70.4321064,22.6270109 70.4321064,21.3669862 C70.4321064,19.4385549 72.5446718,18.9059935 74.9494816,18.9193676 L74.9488833,20.6695772 L74.9488833,20.6697275 Z M78.7208407,17.3090606 C78.7208407,14.12917 77.3684998,11.3311188 72.799077,11.3311188 C70.4534938,11.3311188 68.5918937,11.9930638 67.5757685,12.5830288 L68.3199897,15.1394438 C69.2486211,14.5503804 70.7286882,14.0627501 72.1293377,14.0627501 C74.4471023,14.0562885 74.826691,15.3815309 74.826691,16.229662 L74.826691,16.4304244 C69.7743321,16.4229108 66.5805819,18.180634 66.5805819,21.761298 C66.5805819,23.9492479 68.2072199,25.9984973 71.0348419,25.9984973 C72.7723054,25.9984973 74.2275451,25.3016894 75.0984455,24.1844224 L75.1844437,24.1844224 C75.1844437,24.1844224 75.7607067,26.6101014 78.9420431,25.682026 C78.7760292,24.6732549 78.721439,23.5964109 78.721439,22.3015233 L78.7209903,17.3090606 M0,7.00060109 C0,7.00060109 3.30158444,20.5932394 3.82879102,22.7992218 C4.44379058,25.3741201 5.55219566,26.3220314 8.74639448,25.682026 L10.8078096,17.2551132 C11.3305293,15.1609326 11.6803552,13.6678372 12.0171691,11.5396953 L12.0757975,11.5396953 C12.3122552,13.6903779 12.6477231,15.1673943 13.0778639,17.2620257 C13.0778639,17.2620257 13.9166084,21.0879324 14.3468987,23.0967589 C14.7776377,25.1049843 15.9765279,26.3714706 19.1056672,25.682026 L24.0178864,7 L20.0529938,7 L18.3752056,15.0775321 C17.9241262,17.4277749 17.5152233,19.266344 17.1996472,21.4159746 L17.1435613,21.4159746 C16.8568507,19.2852782 16.4917695,17.5216944 16.0336606,15.2312596 L14.2882704,7 L10.1564664,7 L8.28843518,15.023735 C7.75973299,17.4626378 7.26393446,19.4311916 6.94985395,21.5092931 L6.89272121,21.5092931 C6.57026521,19.5524605 6.14102185,17.0773423 5.67648181,14.7176324 C5.67648181,14.7176324 4.56747847,8.97832139 4.17742039,7 L0,7.00060109 M31.5178299,20.6697275 C31.5178299,20.9281941 31.4949469,21.1947753 31.4234562,21.428898 C31.13181,22.4013034 30.1291454,23.2235878 28.8755155,23.2235878 C27.830076,23.2235878 27.001053,22.6270109 27.001053,21.3669862 C27.001053,19.4385549 29.1130201,18.9059935 31.5182786,18.9193676 L31.5178299,20.6695772 L31.5178299,20.6697275 Z M35.2893387,17.3090606 C35.2893387,14.12917 33.9369977,11.3311188 29.3684723,11.3311188 C27.0222909,11.3311188 25.1591952,11.9930638 24.1436682,12.5830288 L24.8869921,15.1394438 C25.8154739,14.5503804 27.2955409,14.0627501 28.6966391,14.0627501 C31.0160489,14.0562885 31.3956377,15.3815309 31.3956377,16.229662 L31.3956377,16.4304244 C26.3411848,16.4229108 23.1489303,18.180634 23.1489303,21.761298 C23.1489303,23.9492479 24.7746709,25.9984973 27.600199,25.9984973 C29.3400555,25.9984973 30.7943978,25.3016894 31.6663452,24.1844224 L31.7512965,24.1844224 C31.7512965,24.1844224 32.3292046,26.6101014 35.5097933,25.682026 C35.3434802,24.6732549 35.2893387,23.5964109 35.2893387,22.3015233 L35.2893387,17.3090606 M41.5838113,21.7163669 L41.5838113,7.00060109 L37.807367,7.00060109 L37.807367,25.6826271 L41.5838113,25.6826271 L41.5838113,21.7163669 M90.9865821,7.00060109 L90.9865821,20.7819801 C90.9865821,22.6829118 91.3432879,24.0132634 92.1038114,24.8274332 C92.7702603,25.5392683 93.8652048,26 95.1783605,26 C96.2952906,26 97.3933759,25.7858634 97.9116088,25.5927648 L97.8628515,22.6285136 C97.4772803,22.7231845 97.0345763,22.7998228 96.4285505,22.7998228 C95.1417178,22.7998228 94.7114275,21.9715275 94.7114275,20.2657983 L94.7114275,14.9927791 L98,14.9927791 L98,11.4178253 L94.7114275,11.4178253 L94.7114275,7.00060109 L90.9865821,7.00060109 M81.2390186,11.6480409 L81.2390186,25.6826271 L85.1346639,25.6826271 L85.1346639,18.4966545 C85.1346639,18.1082032 85.1579956,17.7697923 85.2191665,17.4602335 C85.5073728,15.9542147 86.6530189,14.9927791 88.2986512,14.9927791 C88.7497306,14.9927791 89.0726353,15.042068 89.4224612,15.0919581 L89.4224612,11.4178253 C89.1288707,11.3590693 88.9296539,11.3315696 88.5644231,11.3315696 C87.110679,11.3315696 85.4566712,12.2740711 84.7625533,14.2958209 L84.6572615,14.2958209 L84.6572615,11.6480409 L81.2390186,11.6480409 M44.2280701,11.6480409 L44.2280701,25.6826271 L48.0235087,25.6826271 L48.0235087,17.4527199 C48.0235087,17.0665227 48.0686765,16.6580854 48.2017868,16.3040463 C48.516316,15.4754504 49.283869,14.5049985 50.5086334,14.5049985 C52.0408976,14.5049985 52.7564029,15.805897 52.7564029,17.6833863 L52.7564029,25.6815752 L56.5488504,25.6815752 L56.5488504,17.3514371 C56.5488504,16.9829719 56.5989537,16.53877 56.7073862,16.2138835 C57.0187746,15.2707809 57.8455542,14.5039466 58.9843204,14.5039466 C60.5369251,14.5039466 61.2821933,15.7820038 61.2821933,17.9918933 L61.2821933,25.6811243 L65.0771832,25.6811243 L65.0771832,17.4147013 C65.0771832,13.0557823 62.8741328,11.3302172 60.3869142,11.3302172 C59.2864359,11.3302172 58.4168816,11.6071671 57.6304838,12.0913412 C56.9701669,12.5000791 56.3779008,13.0792246 55.8611636,13.8404989 L55.8050778,13.8404989 C55.2053336,12.3280185 53.7942147,11.3309685 51.9553481,11.3309685 C49.5930139,11.3309685 48.5312722,12.5341907 47.8872576,13.5545327 L47.8307231,13.5545327 L47.8307231,11.6475901 L44.2280701,11.6475901" id="Shape" fill="#1A75CF"></path>
                <path d="M132.890792,23.9444095 L132.9689,23.9444095 C133.072499,23.9444095 133.138982,23.9003566 133.138982,23.8349066 C133.138982,23.7604363 133.076578,23.7199497 132.98032,23.7199497 C132.947283,23.7199497 132.913429,23.7268722 132.890996,23.7268722 L132.890996,23.9462975 L132.890996,23.9441997 L132.890792,23.9444095 Z M132.87876,24.4726243 L132.60365,24.4726243 L132.60365,23.5506608 C132.666055,23.5380743 132.811665,23.5156283 132.998063,23.5156283 C133.200571,23.5156283 133.291323,23.5449969 133.357806,23.5911475 C133.413888,23.6314244 133.454675,23.7002308 133.454675,23.7931613 C133.454675,23.8877701 133.370042,23.9679043 133.245233,24.0029369 L133.245233,24.0146843 C133.346997,24.0425844 133.402468,24.1185232 133.43163,24.2517306 C133.459366,24.3847283 133.476496,24.4390602 133.493831,24.4732536 L133.182217,24.4732536 C133.155093,24.4390602 133.138982,24.3574575 133.120628,24.2760646 C133.10309,24.1827145 133.060263,24.1359346 132.968288,24.1359346 L132.878148,24.1359346 L132.87876,24.4726243 L132.87876,24.4726243 Z M132.992556,23.2502622 C132.597532,23.2502622 132.299582,23.581288 132.299582,24.0033564 C132.299582,24.4145165 132.598348,24.7499476 133.003365,24.7499476 C133.410013,24.7568701 133.708779,24.4147262 133.708779,23.9966436 C133.708779,23.5804489 133.410013,23.2502622 132.998674,23.2502622 L132.992556,23.2502622 Z M133.010299,23 C133.560926,23 134,23.4459828 134,23.9964338 C134,24.5533879 133.560926,25 133.002753,25 C132.44458,25 132,24.5527585 132,23.9966436 C132,23.4459828 132.445192,23.0002098 133.002753,23.0002098 L133.008871,23.0002098" id="Shape" fill="#FDBB30"></path>
            </g>
        </g>
    </g>
</svg>